<?xml version="1.0" encoding="UTF-8"?>
<svg version="1.1" xmlns="http://www.w3.org/2000/svg" width="256" height="256">
<path d="M0 0 C0.69732192 -0.00367669 1.39464383 -0.00735338 2.11309671 -0.01114148 C4.44963219 -0.02215387 6.78612315 -0.02601805 9.12268066 -0.02983093 C10.79836162 -0.03609762 12.47404118 -0.04274461 14.14971924 -0.04974365 C19.65436844 -0.0707688 25.15901787 -0.08114726 30.66369629 -0.09111023 C32.5616304 -0.09515891 34.45956436 -0.09927586 36.35749817 -0.10346031 C45.2785088 -0.12251165 54.19951118 -0.13674062 63.12053823 -0.14507228 C73.40104761 -0.15483314 83.68134102 -0.18112279 93.96177435 -0.22157317 C101.91781717 -0.2517975 109.87379832 -0.26654729 117.8298974 -0.26985329 C122.57661177 -0.27219733 127.32309541 -0.28107269 132.06974792 -0.30631447 C136.54153682 -0.32970979 141.01294497 -0.33378269 145.48477936 -0.32355309 C147.11811342 -0.32306033 148.75146695 -0.32930337 150.38474274 -0.34310913 C162.24765102 -0.43770016 172.90530302 0.79826033 183.00744629 7.64717102 C183.86209473 8.21435852 184.71674316 8.78154602 185.59729004 9.36592102 C195.55650176 16.54032947 202.42699531 26.37263303 206.06994629 38.14717102 C206.24544604 38.70798622 206.4209458 39.26880142 206.60176373 39.84661102 C207.23333841 42.95004881 207.20628 45.90954114 207.21711731 49.07722473 C207.220794 49.77454665 207.22447069 50.47186856 207.22825879 51.19032145 C207.23927118 53.52685692 207.24313536 55.86334788 207.24694824 58.1999054 C207.25321493 59.87558635 207.25986192 61.55126592 207.26686096 63.22694397 C207.28788611 68.73159318 207.29826457 74.2362426 207.30822754 79.74092102 C207.31227621 81.63885513 207.31639317 83.53678909 207.32057762 85.4347229 C207.33962896 94.35573353 207.35385793 103.27673591 207.36218959 112.19776297 C207.37195045 122.47827234 207.3982401 132.75856575 207.43869048 143.03899908 C207.46891481 150.9950419 207.4836646 158.95102305 207.4869706 166.90712214 C207.48931463 171.6538365 207.49819 176.40032014 207.52343178 181.14697266 C207.5468271 185.61876155 207.5509 190.0901697 207.54067039 194.56200409 C207.54017763 196.19533815 207.54642068 197.82869168 207.56022644 199.46196747 C207.65481747 211.32487575 206.41885698 221.98252776 199.56994629 232.08467102 C199.00275879 232.93931946 198.43557129 233.7939679 197.85119629 234.67451477 C190.67678784 244.63372649 180.84448428 251.50422004 169.06994629 255.14717102 C168.50913109 255.32267077 167.94831589 255.49817053 167.37050629 255.67898846 C164.2670685 256.31056314 161.30757617 256.28350473 158.13989258 256.29434204 C157.44257066 256.29801873 156.74524875 256.30169542 156.02679586 256.30548352 C153.69026039 256.31649591 151.35376943 256.32036009 149.01721191 256.32417297 C147.34153096 256.33043966 145.66585139 256.33708665 143.99017334 256.34408569 C138.48552413 256.36511085 132.98087471 256.3754893 127.47619629 256.38545227 C125.57826218 256.38950095 123.68032822 256.3936179 121.78239441 256.39780235 C112.86138378 256.41685369 103.9403814 256.43108266 95.01935434 256.43941432 C84.73884496 256.44917518 74.45855156 256.47546483 64.17811823 256.51591522 C56.22207541 256.54613954 48.26609426 256.56088933 40.30999517 256.56419533 C35.56328081 256.56653937 30.81679717 256.57541473 26.07014465 256.60065651 C21.59835576 256.62405183 17.12694761 256.62812473 12.65511322 256.61789513 C11.02177916 256.61740237 9.38842563 256.62364541 7.75514984 256.63745117 C-4.10775844 256.7320422 -14.76541045 255.49608171 -24.86755371 248.64717102 C-25.72220215 248.07998352 -26.57685059 247.51279602 -27.45739746 246.92842102 C-37.41660919 239.75401257 -44.28710273 229.92170901 -47.93005371 218.14717102 C-48.10555346 217.58635582 -48.28105322 217.02554062 -48.46187115 216.44773102 C-49.09344583 213.34429323 -49.06638742 210.3848009 -49.07722473 207.21711731 C-49.08090142 206.51979539 -49.08457811 205.82247348 -49.08836621 205.1040206 C-49.0993786 202.76748512 -49.10324278 200.43099416 -49.10705566 198.09443665 C-49.11332235 196.41875569 -49.11996934 194.74307613 -49.12696838 193.06739807 C-49.14799354 187.56274887 -49.15837199 182.05809944 -49.16833496 176.55342102 C-49.17238364 174.65548691 -49.17650059 172.75755295 -49.18068504 170.85961914 C-49.19973638 161.93860851 -49.21396535 153.01760613 -49.22229701 144.09657907 C-49.23205787 133.8160697 -49.25834752 123.53577629 -49.29879791 113.25534296 C-49.32902223 105.29930014 -49.34377202 97.34331899 -49.34707803 89.38721991 C-49.34942206 84.64050554 -49.35829742 79.8940219 -49.3835392 75.14736938 C-49.40693452 70.67558049 -49.41100743 66.20417234 -49.40077782 61.73233795 C-49.40028506 60.09900389 -49.4065281 58.46565036 -49.42033386 56.83237457 C-49.51492489 44.96946629 -48.2789644 34.31181429 -41.43005371 24.20967102 C-40.86286621 23.35502258 -40.29567871 22.50037415 -39.71130371 21.61982727 C-32.53689527 11.66061555 -22.7045917 4.790122 -10.93005371 1.14717102 C-10.36923851 0.97167127 -9.80842331 0.79617151 -9.23061371 0.61535358 C-6.12717592 -0.0162211 -3.16768359 0.01083731 0 0 Z M57.06994629 57.14717102 C54.67929846 60.73314276 54.26640346 62.85190277 54.06994629 67.14717102 C55.04119522 69.75811667 55.9791993 71.87985777 57.31994629 74.27217102 C57.63318848 74.86642883 57.94643066 75.46068665 58.26916504 76.07295227 C59.69031158 78.74423601 61.1472687 81.25340811 62.92932129 83.70185852 C64.06994629 86.14717102 64.06994629 86.14717102 63.32556152 88.96504211 C62.1256883 92.00590301 60.7707847 94.68834508 59.12072754 97.50654602 C58.22946167 99.03891907 58.22946167 99.03891907 57.32019043 100.60224915 C56.68073486 101.68957336 56.0412793 102.77689758 55.38244629 103.89717102 C54.37868094 105.62178097 53.37492254 107.34639501 52.37156677 109.07124329 C50.96702309 111.48318168 49.55780716 113.89237713 48.14880371 116.30171204 C45.30341147 121.16894895 42.4658762 126.04070281 39.63742065 130.9178009 C38.6430793 132.62887362 37.64328368 134.33677294 36.64343262 136.04463196 C36.04297119 137.07878235 35.44250977 138.11293274 34.82385254 139.17842102 C34.29090576 140.0917218 33.75795898 141.00502258 33.2088623 141.94599915 C31.91676512 144.03016213 31.91676512 144.03016213 32.06994629 146.14717102 C31.22287109 146.12622375 30.3757959 146.10527649 29.50305176 146.08369446 C26.33854236 146.01523047 23.17441238 145.96523115 20.00939941 145.92744446 C18.64371261 145.90741783 17.2781106 145.8801877 15.91271973 145.84541321 C13.94207527 145.7965067 11.97078646 145.77625755 9.99963379 145.75654602 C8.81611328 145.73559875 7.63259277 145.71465149 6.41320801 145.69306946 C2.3557406 146.24417866 0.24383738 147.60690505 -2.93005371 150.14717102 C-5.30262576 153.59122722 -5.93005371 155.51821676 -5.93005371 159.70967102 C-4.41014417 164.93436007 -1.34498712 167.20388208 3.06994629 170.14717102 C4.99414513 170.44069738 4.99414513 170.44069738 7.11320496 170.38768005 C7.93350189 170.39042938 8.75379883 170.39317871 9.59895325 170.39601135 C10.49518906 170.3888208 11.39142487 170.38163025 12.31481934 170.3742218 C13.73462097 170.37465988 13.73462097 170.37465988 15.18310547 170.37510681 C18.31605146 170.37371193 21.44876052 170.35814319 24.58166504 170.34248352 C26.75213999 170.33875396 28.92261663 170.33590672 31.09309387 170.33390808 C36.80926145 170.32626719 42.52532761 170.30661473 48.24145508 170.28450012 C54.0729434 170.26405155 59.90444809 170.25490848 65.73596191 170.24482727 C77.18066797 170.22336931 88.6252987 170.18922782 100.06994629 170.14717102 C99.44058418 168.91325874 99.44058418 168.91325874 98.79850769 167.65441895 C98.25217178 166.57461258 97.70583588 165.49480621 97.14294434 164.38227844 C96.5996196 163.31217026 96.05629486 162.24206207 95.49650574 161.13952637 C94.06994629 158.14717102 94.06994629 158.14717102 92.90197754 154.38545227 C91.50308518 150.37100638 90.54250425 148.70839847 87.06994629 146.14717102 C78.24987253 144.31524228 69.02482855 144.7740894 60.06994629 145.14717102 C65.50114218 135.23586424 71.04878809 125.40156886 76.75744629 115.64717102 C77.34018311 114.65120911 77.92291992 113.65524719 78.52331543 112.62910461 C79.73838145 110.55275718 80.95346977 108.4764228 82.1685791 106.40010071 C85.50173189 100.69761898 88.82107689 94.98731603 92.13244629 89.27217102 C92.75143799 88.20933899 93.37042969 87.14650696 94.00817871 86.0514679 C96.75405301 81.3058277 99.46145635 76.53993116 102.02697754 71.69404602 C102.43279053 70.93188782 102.83860352 70.16972961 103.25671387 69.38447571 C104.47163911 66.04206354 104.04349543 63.4059573 103.01525879 60.06123352 C101.25204326 56.49108637 98.51901287 54.87170431 95.06994629 53.14717102 C91.18061106 52.70520111 89.35400362 52.99121798 85.88244629 54.89717102 C83.41661748 56.86983406 81.88017274 58.61285398 80.06994629 61.14717102 C79.40994629 61.14717102 78.74994629 61.14717102 78.06994629 61.14717102 C76.82603694 59.64138601 75.58349041 58.13439466 74.35510254 56.61592102 C71.89649366 53.8060823 69.83444541 53.2468883 66.19494629 52.77217102 C62.22507115 53.24855604 60.17458093 54.67757528 57.06994629 57.14717102 Z M99.06994629 99.14717102 C96.90038014 102.03021866 95.00783488 105.10558429 93.06994629 108.14717102 C92.41381348 109.15650696 91.75768066 110.1658429 91.08166504 111.20576477 C90.11680176 112.75457336 90.11680176 112.75457336 89.13244629 114.33467102 C88.22172363 115.77906555 88.22172363 115.77906555 87.29260254 117.25263977 C85.76400075 120.87147019 85.92098361 122.40713201 87.06994629 126.14717102 C88.37138537 128.6575024 89.70645378 131.00408593 91.19494629 133.39717102 C92.11179327 134.91320259 93.02705497 136.4301936 93.94104004 137.94795227 C94.44232422 138.77633606 94.9436084 139.60471985 95.46008301 140.45820618 C98.45651339 145.46316285 101.3500459 150.52766619 104.25744629 155.58467102 C104.88715332 156.67586243 105.51686035 157.76705383 106.16564941 158.89131165 C109.17778668 164.1117429 112.18160063 169.33644759 115.16114807 174.57553101 C116.18007651 176.36618508 117.20141215 178.155444 118.22351074 179.94429016 C119.50685495 182.19200992 120.78558465 184.44237271 122.05895996 186.695755 C127.24787449 196.77646969 127.24787449 196.77646969 136.06994629 203.14717102 C139.91008787 203.47691484 143.65578093 203.28848565 146.73010254 200.80732727 C149.14944086 197.9224603 150.89527771 195.32982285 151.44494629 191.60810852 C150.90433391 186.61870677 148.5916112 183.04537074 146.06994629 178.77217102 C145.59299316 177.94072571 145.11604004 177.1092804 144.62463379 176.25263977 C143.45103502 174.21057792 142.26605502 172.17610227 141.06994629 170.14717102 C142.01096191 170.19357727 142.95197754 170.23998352 143.92150879 170.28779602 C151.62543402 170.84041884 151.62543402 170.84041884 158.75744629 168.52217102 C162.47190593 164.70732058 164.06994629 161.97543512 164.06994629 156.58467102 C162.55003675 151.35998198 159.48487969 149.09045996 155.06994629 146.14717102 C151.9651468 145.87006739 151.9651468 145.87006739 148.43322754 145.95185852 C147.13449707 145.95830383 145.8357666 145.96474915 144.49768066 145.97138977 C143.12593322 145.98810042 141.75418843 146.00503031 140.38244629 146.02217102 C138.9989891 146.03220428 137.61552502 146.04132953 136.23205566 146.04951477 C132.84451177 146.07312135 129.45731557 146.10605065 126.06994629 146.14717102 C125.6648584 144.82423035 125.6648584 144.82423035 125.25158691 143.4745636 C124.13982188 140.34393433 122.85117265 137.76035336 121.16369629 134.90888977 C120.58901611 133.93113586 120.01433594 132.95338196 119.42224121 131.94599915 C118.81098389 130.91926086 118.19972656 129.89252258 117.56994629 128.83467102 C116.94644287 127.7782843 116.32293945 126.72189758 115.68054199 125.63349915 C114.41606923 123.49150142 113.14956273 121.35070291 111.88098145 119.21113586 C110.22648027 116.41200002 108.58735257 113.6047582 106.95666504 110.79170227 C106.49646973 109.9999762 106.03627441 109.20825012 105.56213379 108.39253235 C104.70707765 106.92098458 103.85413422 105.44820671 103.00354004 103.97407532 C102.05359213 102.34846883 101.06627557 100.74477092 100.06994629 99.14717102 C99.73994629 99.14717102 99.40994629 99.14717102 99.06994629 99.14717102 Z M11.06994629 181.14717102 C6.92135987 187.57245486 6.92135987 187.57245486 7.06994629 194.14717102 C9.35720005 198.46753923 11.54079763 201.20610731 16.06994629 203.14717102 C19.79636289 203.70216924 21.66404162 203.34166701 25.06994629 201.70967102 C29.00705882 198.34672073 31.42504713 194.56028929 34.06994629 190.14717102 C34.48760254 189.4639679 34.90525879 188.78076477 35.33557129 188.07685852 C37.39945456 184.83421147 37.39945456 184.83421147 38.06994629 181.14717102 C29.15994629 181.14717102 20.24994629 181.14717102 11.06994629 181.14717102 Z " fill="#000000" transform="translate(48.9300537109375,-0.1471710205078125)"/>
</svg>
